<?xml version="1.0" encoding="utf-8"?>
<!-- Generator: Adobe Illustrator 24.2.1, SVG Export Plug-In . SVG Version: 6.00 Build 0)  -->
<svg version="1.1" id="Layer_1" xmlns="http://www.w3.org/2000/svg" xmlns:xlink="http://www.w3.org/1999/xlink" x="0px" y="0px"
	 viewBox="0 0 503 167" style="enable-background:new 0 0 503 167;" xml:space="preserve">
<style type="text/css">
	.st0{display:none;}
	.st1{fill:#5D38DF;}
</style>
<g id="Identity_Set_-_Reverse" class="st0">
</g>
<g id="Identity_Set">
	<path id="disprz" class="st1" d="M483.2,102.4v12.2c0,5.4-2.3,7.7-7.7,7.7h-43.9v-9.1l21-25.1c2.8-3.4,4.8-5,4.8-5v-0.2
		c0,0-1.4,0.2-4.8,0.2h-2c-1.5,0-2.3,0.8-2.3,2.3v2.2h-16.4V75.4c0-5.4,2.3-7.7,7.7-7.7h41.7v9.2L460.4,102c-2.6,3.3-4.9,5-4.9,5
		v0.2c0,0,1.4-0.3,4.9-0.3h4c1.5,0,2.3-0.8,2.3-2.3v-2.2L483.2,102.4L483.2,102.4z M423.7,84.7c2.2,0,3.7,0.3,3.7,0.3V67
		c0,0-1.1-0.2-2.1-0.2c-8.2,0-15,6.1-17.4,13.6h-0.2c0,0,0.2-1.1,0.2-2.8v-2.9c0-5-2.8-7-7.7-7H384v15.4h4c1.5,0,2.3,0.8,2.3,2.3
		v36.9h18.3v-20.7c0-3,0.3-5.4,1-7.4C412.3,86.1,419.4,84.7,423.7,84.7 M382.5,95.1c0,17.3-10.9,28.5-25.4,28.5
		c-8.9,0-13.9-4.7-13.9-4.7H343c0,0,0.2,1.9,0.2,4.7v19.9h-18.3V85.4c0-1.5-0.8-2.3-2.3-2.3h-4V67.7h15.8c5.3,0,7.1,2.4,7.1,4.8v1
		h0.2c0,0,4.8-7,16.3-7C372.7,66.5,382.5,78.1,382.5,95.1 M364,95.4c0-8.2-4.3-13.5-10.7-13.5c-5.5,0-10.7,4-10.7,13.5
		c0,6.6,3.5,13,10.7,13C359,108.4,364,103.8,364,95.4 M288.6,82.7c0-1.7,2.3-2.5,4.9-2.5s5,1.1,5,2.5v2.6h15.9v-6.5
		c0-9.9-12.3-12.4-21.2-12.4c-11.5,0-22.5,5.1-22.5,16.8c0,17.7,27.3,19.2,27.3,23.7c0,1.9-1.5,2.6-4.1,2.6c-8.4,0-16-7.8-16-7.8
		l-8.2,11.8c0,0,8.5,10,24.2,10c12.7,0,22.4-6.7,22.4-17.7C316.3,87.6,288.6,88.3,288.6,82.7 M250.1,122.3h17v-15.4h-4
		c-1.5,0-2.3-0.8-2.3-2.3V75.5c0-5.4-2.3-7.7-7.7-7.7h-17v15.4h4c1.5,0,2.3,0.8,2.3,2.3v29.1C242.4,120,244.7,122.3,250.1,122.3
		 M260,51.9c0-5.6-4.6-10.2-10.2-10.2s-10.2,4.6-10.2,10.2s4.6,10.2,10.2,10.2C255.4,62.1,260,57.5,260,51.9 M219.6,122.3
		c-5.2,0-7.1-2.6-7.1-5.2v-1h-0.2c0,0-4.6,7.4-15.8,7.4c-14.8,0-24.6-11.7-24.6-28.6c0-17.3,10.4-28.5,24.9-28.5
		c11,0,14.3,3.8,14.3,3.8h0.2c0,0-0.1-1.1-0.1-2.4V57.4c0-1.5-0.8-2.3-2.3-2.3h-4V39.8h17c5.4,0,7.7,2.3,7.7,7.7v57.1
		c0,1.5,0.8,2.3,2.3,2.3h4v15.4H219.6z M211.7,95c0-6.6-3.5-13-10.7-13c-5.7,0-10.7,4.7-10.7,13c0,8.2,4.3,13.5,10.7,13.5
		C206.5,108.4,211.7,104.4,211.7,95"/>
	<path id="Mnemonic" class="st1" d="M84.8,20.4c3.2,0,5.8,2.6,5.8,5.8S88,32,84.8,32S79,29.4,79,26.2S81.6,20.4,84.8,20.4
		 M84.8,150.4c3.2,0,5.8-2.6,5.8-5.8s-2.6-5.8-5.8-5.8s-5.8,2.6-5.8,5.8C79,147.9,81.6,150.4,84.8,150.4 M19.8,85.4
		c0,3.2,2.6,5.8,5.8,5.8c3.2,0,5.8-2.6,5.8-5.8s-2.6-5.8-5.8-5.8C22.4,79.7,19.8,82.3,19.8,85.4 M149.8,85.4c0-3.2-2.6-5.8-5.8-5.8
		s-5.8,2.6-5.8,5.8s2.6,5.8,5.8,5.8S149.8,88.6,149.8,85.4 M38.8,39.5c-2.3,2.3-2.3,5.9,0,8.2c2.3,2.3,5.9,2.3,8.2,0
		c2.3-2.3,2.3-5.9,0-8.2C44.7,37.2,41.1,37.2,38.8,39.5 M130.8,131.4c2.3-2.3,2.3-5.9,0-8.2s-5.9-2.3-8.2,0s-2.3,5.9,0,8.2
		C124.9,133.7,128.5,133.7,130.8,131.4 M38.8,131.4c2.3,2.3,5.9,2.3,8.2,0c2.3-2.3,2.3-5.9,0-8.2s-5.9-2.3-8.2,0
		C36.6,125.5,36.6,129.1,38.8,131.4 M70.9,51.8c-1.6,0.7-2.4,2.6-1.7,4.2s2.6,2.4,4.2,1.7c1.6-0.7,2.4-2.6,1.7-4.2
		S72.5,51.1,70.9,51.8 M98.7,119.1c1.6-0.7,2.4-2.6,1.7-4.2c-0.7-1.6-2.6-2.4-4.2-1.7c-1.6,0.7-2.4,2.6-1.7,4.2
		S97.1,119.7,98.7,119.1 M51.2,99.4c0.7,1.6,2.6,2.4,4.2,1.7s2.4-2.6,1.7-4.2c-0.7-1.6-2.6-2.4-4.2-1.7
		C51.3,95.8,50.5,97.7,51.2,99.4 M142,53.2c-0.7-1.6-2.6-2.4-4.2-1.7c-1.6,0.7-2.4,2.6-1.7,4.2s2.6,2.4,4.2,1.7
		C141.9,56.7,142.7,54.8,142,53.2 M51.2,71.5c-0.7,1.6,0.1,3.5,1.7,4.2s3.5-0.1,4.2-1.7c0.7-1.6-0.1-3.5-1.7-4.2
		C53.7,69.1,51.9,69.9,51.2,71.5 M118.4,99.4c0.7-1.6-0.1-3.5-1.7-4.2c-1.6-0.7-3.5,0.1-4.2,1.7c-0.7,1.6,0.1,3.5,1.7,4.2
		C115.9,101.8,117.8,101,118.4,99.4 M70.9,119.1c1.6,0.7,3.5-0.1,4.2-1.7c0.7-1.6-0.1-3.5-1.7-4.2c-1.6-0.7-3.5,0.1-4.2,1.7
		C68.4,116.5,69.2,118.4,70.9,119.1 M109.2,43.3c-1.7-0.4-3.5,0.8-3.8,2.5c-0.4,1.7,0.8,3.5,2.5,3.8c1.7,0.4,3.5-0.8,3.8-2.5
		C112.1,45.4,110.9,43.7,109.2,43.3 M84.8,94.7c5.1,0,9.3-4.2,9.3-9.3s-4.2-9.3-9.3-9.3s-9.3,4.2-9.3,9.3S79.7,94.7,84.8,94.7
		 M142.8,18.2c-2.3-2.2-5.9-2.1-8.2,0.1c-2.2,2.3-2.1,5.9,0.1,8.1c2.3,2.2,5.9,2.1,8.1-0.1C145.2,24.1,145.1,20.4,142.8,18.2
		 M98.2,32.8c2,2,2,5.3,0,7.3c-0.9,0.9-2.1,1.4-3.3,1.5c-1.3,0-2.5,0.5-3.5,1.5s-1.5,2.2-1.5,3.5c-0.1,1.2-0.6,2.4-1.5,3.3
		c-2,2-5.3,2-7.3,0c-0.9-0.9-1.4-2.1-1.5-3.3c-0.1-1.2-0.6-2.5-1.5-3.4c-1-1-2.2-1.5-3.5-1.5c-1.2-0.1-2.4-0.6-3.3-1.5
		c-2-2-2-5.3,0-7.3s5.3-2,7.3,0c0.9,0.9,1.4,2.1,1.5,3.3c0,1.3,0.5,2.5,1.5,3.5c0.9,0.9,2,1.4,3.1,1.5c1.1-0.1,2.2-0.6,3.1-1.5
		c1-1,1.5-2.2,1.5-3.5c0.1-1.2,0.6-2.4,1.5-3.3C92.9,30.8,96.2,30.8,98.2,32.8 M98.2,138c2-2,2-5.3,0-7.3c-0.9-0.9-2.1-1.4-3.3-1.5
		c-1.3,0-2.5-0.5-3.5-1.5c-1-1-1.5-2.2-1.5-3.5c-0.1-1.2-0.6-2.4-1.5-3.3c-2-2-5.3-2-7.3,0c-0.9,0.9-1.4,2.1-1.5,3.3
		s-0.6,2.5-1.5,3.4c-1,1-2.2,1.5-3.5,1.5c-1.2,0.1-2.4,0.6-3.3,1.5c-2,2-2,5.3,0,7.3s5.3,2,7.3,0c0.9-0.9,1.4-2.1,1.5-3.3
		c0-1.3,0.5-2.5,1.5-3.5c0.9-0.9,2-1.4,3.1-1.5c1.1,0.1,2.2,0.6,3.1,1.5c1,1,1.5,2.2,1.5,3.5c0.1,1.2,0.6,2.4,1.5,3.3
		C92.9,140.1,96.2,140.1,98.2,138 M81.3,55.2c-1.6-0.7-3.5,0.1-4.2,1.7c-0.3,0.7-0.3,1.5-0.1,2.2c0.3,0.7,0.3,1.6,0,2.4
		c-0.3,0.7-0.8,1.2-1.4,1.6c-0.7,0.2-1.4,0.2-2.1-0.1c-0.8-0.3-1.4-0.9-1.7-1.6s-0.9-1.2-1.6-1.5c-1.6-0.7-3.5,0.1-4.2,1.7
		s0.1,3.5,1.7,4.2c0.7,0.3,1.5,0.3,2.2,0.1c0.7-0.3,1.6-0.3,2.4,0c0.8,0.3,1.4,0.9,1.7,1.6s0.9,1.2,1.7,1.5c1.6,0.7,3.5-0.1,4.2-1.7
		c0.3-0.7,0.3-1.5,0.1-2.2c-0.3-0.7-0.3-1.6,0-2.4s0.9-1.4,1.6-1.7c0.7-0.3,1.2-0.9,1.5-1.6C83.7,57.7,82.9,55.8,81.3,55.2
		 M103.7,109.3c0.7-1.6-0.1-3.5-1.7-4.2c-0.7-0.3-1.5-0.3-2.2-0.1c-0.7,0.3-1.6,0.3-2.4,0s-1.4-0.9-1.7-1.6
		c-0.3-0.7-0.9-1.2-1.6-1.5c-1.6-0.7-3.5,0.1-4.2,1.7c-0.3,0.8-0.3,1.5-0.1,2.3c0.3,0.7,0.3,1.6,0,2.3c-0.3,0.8-0.9,1.4-1.6,1.7
		c-0.7,0.3-1.2,0.9-1.5,1.6c-0.7,1.6,0.1,3.5,1.7,4.2c1.6,0.7,3.5-0.1,4.2-1.7c0.3-0.7,0.3-1.5,0.1-2.2c-0.3-0.7-0.3-1.6,0-2.4
		c0.3-0.7,0.8-1.2,1.4-1.6c0.7-0.2,1.4-0.2,2.1,0.1c0.8,0.3,1.4,0.9,1.7,1.6c0.3,0.7,0.9,1.2,1.6,1.5
		C101.2,111.8,103.1,111,103.7,109.3 M54.5,88.9c-0.7,1.6,0.1,3.5,1.7,4.2c0.7,0.3,1.5,0.3,2.2,0.1c0.7-0.3,1.6-0.3,2.4,0
		c0.7,0.3,1.2,0.8,1.6,1.4c0.2,0.7,0.2,1.4-0.1,2.1c-0.3,0.8-0.9,1.4-1.6,1.7s-1.2,0.9-1.5,1.6c-0.7,1.6,0.1,3.5,1.7,4.2
		s3.5-0.1,4.2-1.7c0.3-0.7,0.3-1.5,0.1-2.2c-0.3-0.7-0.3-1.6,0-2.4c0.3-0.8,0.9-1.4,1.6-1.7c0.7-0.3,1.2-0.9,1.5-1.7
		c0.7-1.6-0.1-3.5-1.7-4.2c-0.7-0.3-1.5-0.3-2.2-0.1c-0.7,0.3-1.6,0.3-2.4,0s-1.4-0.9-1.7-1.6c-0.3-0.7-0.9-1.2-1.6-1.5
		C57.1,86.5,55.2,87.3,54.5,88.9 M132.2,48.2c-1.6-0.7-3.5,0.1-4.2,1.7c-0.3,0.7-0.3,1.5-0.1,2.2c0.3,0.7,0.3,1.6,0,2.4
		s-0.9,1.4-1.6,1.7c-0.7,0.3-1.2,0.9-1.5,1.6c-0.7,1.6,0.1,3.5,1.7,4.2c0.8,0.3,1.5,0.3,2.3,0.1c0.7-0.3,1.6-0.3,2.3,0
		c0.8,0.3,1.4,0.9,1.7,1.6s0.9,1.2,1.6,1.5c1.6,0.7,3.5-0.1,4.2-1.7s-0.1-3.5-1.7-4.2c-0.7-0.3-1.5-0.3-2.2-0.1
		c-0.7,0.3-1.6,0.3-2.4,0c-0.7-0.3-1.2-0.8-1.6-1.4c-0.2-0.7-0.2-1.4,0.1-2.1c0.3-0.8,0.9-1.4,1.6-1.7c0.7-0.3,1.2-0.9,1.5-1.6
		C134.7,50.7,133.9,48.8,132.2,48.2 M60.9,66.5c-1.6,0.7-2.4,2.6-1.7,4.2c0.3,0.7,0.9,1.3,1.5,1.6c0.7,0.3,1.3,0.9,1.6,1.7
		c0.3,0.7,0.3,1.4,0.1,2.1c-0.3,0.6-0.9,1.1-1.6,1.4c-0.8,0.3-1.6,0.3-2.4,0c-0.7-0.2-1.5-0.2-2.2,0.1c-1.6,0.7-2.4,2.6-1.7,4.2
		s2.6,2.4,4.2,1.7c0.7-0.3,1.3-0.9,1.6-1.5c0.3-0.7,0.9-1.3,1.7-1.6c0.8-0.3,1.6-0.3,2.3,0c0.7,0.2,1.5,0.2,2.3-0.1
		c1.6-0.7,2.4-2.6,1.7-4.2c-0.3-0.7-0.9-1.3-1.5-1.6c-0.7-0.3-1.3-0.9-1.6-1.7s-0.3-1.6,0-2.4c0.2-0.7,0.2-1.5-0.1-2.2
		C64.4,66.6,62.6,65.8,60.9,66.5 M115.1,88.9c-0.7-1.6-2.6-2.4-4.2-1.7c-0.7,0.3-1.3,0.9-1.6,1.5c-0.3,0.7-0.9,1.3-1.7,1.6
		s-1.6,0.3-2.4,0c-0.7-0.2-1.5-0.2-2.2,0.1c-1.6,0.7-2.4,2.6-1.7,4.2c0.3,0.7,0.9,1.3,1.5,1.7c0.7,0.3,1.3,0.9,1.6,1.7
		s0.3,1.6,0,2.4c-0.2,0.7-0.2,1.5,0.1,2.2c0.7,1.6,2.6,2.4,4.2,1.7c1.6-0.7,2.4-2.6,1.7-4.2c-0.3-0.7-0.9-1.3-1.5-1.6
		c-0.7-0.3-1.3-0.9-1.6-1.7c-0.3-0.7-0.3-1.4-0.1-2.1c0.3-0.6,0.9-1.1,1.6-1.4c0.8-0.3,1.6-0.3,2.4,0c0.7,0.2,1.5,0.2,2.2-0.1
		C115,92.5,115.8,90.6,115.1,88.9 M65.9,109.3c0.7,1.6,2.6,2.4,4.2,1.7c0.7-0.3,1.3-0.9,1.6-1.5c0.3-0.7,0.9-1.3,1.7-1.6
		c0.7-0.3,1.4-0.3,2.1-0.1c0.6,0.3,1.1,0.9,1.4,1.6c0.3,0.8,0.3,1.6,0,2.4c-0.2,0.7-0.2,1.5,0.1,2.2c0.7,1.6,2.6,2.4,4.2,1.7
		c1.6-0.7,2.4-2.6,1.7-4.2c-0.3-0.7-0.9-1.3-1.5-1.6c-0.7-0.3-1.3-0.9-1.6-1.7s-0.3-1.6,0-2.3c0.2-0.7,0.2-1.5-0.1-2.3
		c-0.7-1.6-2.6-2.4-4.2-1.7c-0.7,0.3-1.3,0.9-1.6,1.5c-0.3,0.7-0.9,1.3-1.7,1.6s-1.6,0.3-2.4,0c-0.7-0.2-1.5-0.2-2.2,0.1
		C66,105.8,65.2,107.7,65.9,109.3 M99.6,48.6c-1.5,1-1.9,3-0.9,4.5c0.4,0.7,1.1,1.1,1.8,1.3c0.8,0.2,1.5,0.6,1.9,1.4
		c0.5,0.7,0.6,1.5,0.5,2.3c-0.1,0.7,0.1,1.5,0.5,2.2c1,1.5,3,1.9,4.5,0.9c0.7-0.4,1.1-1.1,1.3-1.8c0.2-0.8,0.6-1.4,1.3-1.9
		s1.5-0.6,2.3-0.5c0.7,0.1,1.5-0.1,2.2-0.5c1.5-1,1.9-3,0.9-4.5s-3-1.9-4.5-0.9c-0.7,0.4-1.1,1.1-1.3,1.8c-0.2,0.8-0.6,1.5-1.4,1.9
		c-0.6,0.4-1.4,0.6-2.1,0.5c-0.7-0.2-1.3-0.6-1.7-1.3c-0.5-0.7-0.6-1.5-0.5-2.3c0.1-0.7-0.1-1.5-0.5-2.2
		C103.1,48,101.1,47.6,99.6,48.6 M32.2,72c-2,2-2,5.3,0,7.3c0.9,0.9,2.1,1.4,3.3,1.5c1.3,0,2.5,0.5,3.5,1.5c0.9,0.9,1.4,2,1.5,3.1
		c-0.1,1.1-0.6,2.2-1.5,3.1c-1,1-2.2,1.5-3.5,1.5c-1.2,0.1-2.4,0.6-3.3,1.5c-2,2-2,5.3,0,7.3s5.3,2,7.3,0c0.9-0.9,1.4-2.1,1.5-3.3
		c0-1.3,0.5-2.5,1.5-3.5s2.2-1.5,3.4-1.5c1.2-0.1,2.4-0.6,3.3-1.5c2-2,2-5.3,0-7.3c-0.9-0.9-2.1-1.4-3.3-1.5c-1.3,0-2.5-0.5-3.5-1.5
		s-1.5-2.2-1.5-3.5c-0.1-1.2-0.6-2.4-1.5-3.3C37.5,70,34.2,70,32.2,72 M137.4,72c-2-2-5.3-2-7.3,0c-0.9,0.9-1.4,2.1-1.5,3.3
		c0,1.3-0.5,2.5-1.5,3.5s-2.2,1.5-3.5,1.5c-1.2,0.1-2.4,0.6-3.3,1.5c-2,2-2,5.3,0,7.3c0.9,0.9,2.1,1.4,3.3,1.5s2.5,0.6,3.4,1.5
		c1,1,1.5,2.2,1.5,3.5c0.1,1.2,0.6,2.4,1.5,3.3c2,2,5.3,2,7.3,0s2-5.3,0-7.3c-0.9-0.9-2.1-1.4-3.3-1.5c-1.3,0-2.5-0.5-3.5-1.5
		c-0.9-0.9-1.4-2-1.5-3.1c0.1-1.1,0.6-2.2,1.5-3.1c1-1,2.2-1.5,3.5-1.5c1.2-0.1,2.4-0.6,3.3-1.5C139.4,77.3,139.4,74,137.4,72
		 M57.1,38.7c-2.9,0-5.2,2.3-5.2,5.2c0,1.3,0.5,2.5,1.3,3.4c0.9,0.9,1.4,2.2,1.4,3.5c0,1.2-0.4,2.3-1.1,3.2c-0.9,0.7-2,1.1-3.2,1.1
		c-1.4,0-2.6-0.5-3.5-1.4c-0.9-0.8-2.1-1.3-3.4-1.3c-2.9,0-5.2,2.3-5.2,5.2c0,2.9,2.3,5.2,5.2,5.2c1.3,0,2.5-0.5,3.4-1.3
		c0.9-0.9,2.2-1.4,3.5-1.4s2.6,0.5,3.5,1.4c0.9,0.8,2.1,1.3,3.4,1.3c2.9,0,5.2-2.3,5.2-5.2c0-1.3-0.5-2.5-1.3-3.4
		c-0.9-0.9-1.4-2.2-1.4-3.5c0-1.4,0.5-2.6,1.4-3.5c0.8-0.9,1.3-2.1,1.3-3.4C62.3,41.1,60,38.7,57.1,38.7 M131.5,113.1
		c0-2.9-2.3-5.2-5.2-5.2c-1.3,0-2.5,0.5-3.4,1.3c-0.9,0.9-2.2,1.4-3.5,1.4c-1.4,0-2.6-0.5-3.5-1.4c-0.9-0.8-2.1-1.3-3.4-1.3
		c-2.9,0-5.2,2.3-5.2,5.2c0,1.3,0.5,2.5,1.3,3.4s1.4,2.1,1.4,3.5s-0.5,2.6-1.4,3.5c-0.8,0.9-1.3,2.1-1.3,3.4c0,2.9,2.3,5.2,5.2,5.2
		s5.2-2.3,5.2-5.2c0-1.3-0.5-2.5-1.3-3.4c-0.9-0.9-1.4-2.2-1.4-3.5c0-1.2,0.4-2.3,1.1-3.2c0.9-0.7,2-1.1,3.2-1.1
		c1.4,0,2.6,0.5,3.5,1.4c0.9,0.8,2.1,1.3,3.4,1.3C129.2,118.3,131.5,116,131.5,113.1 M38.1,113.1c0,2.9,2.3,5.2,5.2,5.2
		c1.3,0,2.5-0.5,3.4-1.3c0.9-0.9,2.2-1.4,3.5-1.4c1.2,0,2.3,0.4,3.2,1.1c0.7,0.9,1.1,2,1.1,3.2c0,1.4-0.5,2.6-1.4,3.5
		c-0.8,0.9-1.3,2.1-1.3,3.4c0,2.9,2.3,5.2,5.2,5.2c2.9,0,5.2-2.3,5.2-5.2c0-1.3-0.5-2.5-1.3-3.4c-0.9-0.9-1.4-2.2-1.4-3.5
		s0.5-2.6,1.4-3.5c0.8-0.9,1.3-2.1,1.3-3.4c0-2.9-2.3-5.2-5.2-5.2c-1.3,0-2.5,0.5-3.4,1.3c-0.9,0.9-2.2,1.4-3.5,1.4
		s-2.6-0.5-3.5-1.4c-0.9-0.8-2.1-1.3-3.4-1.3C40.4,108,38.1,110.3,38.1,113.1 M124.6,17.8c-2.9,0.1-5.1,2.4-5.1,5.3
		c0,1.3,0.5,2.5,1.3,3.3c0.9,0.9,1.4,2.1,1.5,3.5s-0.5,2.6-1.3,3.6c-0.8,0.9-1.2,2.1-1.2,3.4c0.1,2.9,2.4,5.1,5.3,5.1
		c1.3,0,2.5-0.5,3.4-1.3c0.9-0.9,2.1-1.4,3.5-1.4s2.6,0.5,3.6,1.3c0.9,0.8,2.1,1.2,3.4,1.2c2.9,0,5.1-2.4,5.1-5.3s-2.4-5.1-5.3-5.1
		c-1.3,0-2.5,0.5-3.3,1.3c-0.9,0.9-2.1,1.4-3.5,1.5c-1.2,0-2.3-0.4-3.2-1.1c-0.7-0.9-1.2-2-1.2-3.2c0-1.4,0.5-2.6,1.3-3.6
		c0.8-0.9,1.2-2.1,1.2-3.4C129.8,20,127.4,17.7,124.6,17.8"/>
</g>
</svg>
